<svg viewBox="0 0 16 16" xmlns="http://www.w3.org/2000/svg" xmlns:xlink="http://www.w3.org/1999/xlink" width="16.000000" height="16.000000" fill="none">
	<rect id="icon" width="16.000000" height="16.000000" x="0.000000" y="0.000000" fill="rgb(255,229.5,229.5)" fill-opacity="0" transform="matrix(0,1,-1,0,16,0)" />
	<path id="1" d="M16 2L16 14C16 14.42 15.67 14.75 15.25 14.75C14.83 14.75 14.5 14.42 14.5 14L14.5 2C14.5 1.58 14.83 1.25 15.25 1.25C15.67 1.25 16 1.58 16 2ZM9.98598 6.0284L11.1988 7.25015L9.03651 7.25034C9.0244 7.24979 9.01221 7.2495 8.99994 7.2495L4.80122 7.24985L6.01358 6.02834C6.30945 5.73022 6.30769 5.26355 6.00959 4.96768C5.71149 4.67181 5.2448 4.67357 4.94894 4.97166L2.46768 7.47166C2.39512 7.54478 2.3407 7.62537 2.30442 7.71342C2.26814 7.8015 2.25 7.89703 2.25 8.00005C2.25002 8.20605 2.32259 8.38217 2.46774 8.52838L4.94949 11.0284C5.24538 11.3265 5.71207 11.3282 6.01014 11.0323C6.30821 10.7364 6.30992 10.2697 6.01403 9.97162L4.80118 8.74985L6.9635 8.74966C6.97561 8.75023 6.9878 8.7505 7.00007 8.7505L11.1988 8.75015L9.98642 9.97168C9.69056 10.2698 9.69231 10.7365 9.99042 11.0323C10.2885 11.3282 10.7552 11.3264 11.0511 11.0283L13.5323 8.52834C13.6049 8.45523 13.6593 8.37463 13.6956 8.28658C13.7319 8.19852 13.75 8.10298 13.75 7.99997C13.75 7.89696 13.7319 7.80142 13.6956 7.71336C13.6593 7.62531 13.6048 7.54472 13.5323 7.47162L11.0505 4.97162C10.7546 4.67355 10.2879 4.67184 9.98987 4.96774C9.6918 5.26363 9.69009 5.73032 9.98598 6.0284ZM1.5 2L1.5 14C1.5 14.42 1.17 14.75 0.75 14.75C0.33 14.75 0 14.42 0 14L0 2C0 1.58 0.33 1.25 0.75 1.25C1.17 1.25 1.5 1.58 1.5 2Z" fill="rgb(179,179,179)" fill-rule="evenodd" />
</svg>
